<?xml version="1.0" standalone="no"?>
<!DOCTYPE svg PUBLIC "-//W3C//DTD SVG 20010904//EN"
 "http://www.w3.org/TR/2001/REC-SVG-20010904/DTD/svg10.dtd">
<svg version="1.0" xmlns="http://www.w3.org/2000/svg"
 width="512.000000pt" height="512.000000pt" viewBox="0 0 512.000000 512.000000"
 preserveAspectRatio="xMidYMid meet">
<metadata>
Created by potrace 1.11, written by Peter Selinger 2001-2013
</metadata>
<g transform="translate(0.000000,512.000000) scale(0.100000,-0.100000)"
fill="#000000" stroke="none">
<path d="M2372 5110 c-618 -48 -1179 -306 -1617 -745 -348 -347 -584 -774
-689 -1245 -80 -363 -80 -757 0 -1120 194 -868 846 -1589 1689 -1865 442 -145
914 -169 1365 -69 682 152 1283 590 1643 1198 326 551 431 1224 291 1856 -194
868 -846 1589 -1689 1865 -315 104 -676 149 -993 125z m-417 -521 c53 -14 136
-99 153 -155 18 -60 18 -3688 0 -3748 -18 -58 -100 -141 -156 -156 -29 -7
-137 -10 -330 -8 -246 3 -291 5 -318 20 -41 22 -89 73 -111 117 -17 34 -18
129 -21 1881 -2 1377 0 1855 9 1885 21 75 87 144 155 165 43 13 571 12 619 -1z
m1750 -2257 c293 -80 522 -286 625 -563 68 -183 68 -435 0 -618 -125 -335
-433 -564 -791 -588 -515 -33 -951 377 -951 897 0 235 83 446 241 614 137 144
300 234 496 272 94 18 287 11 380 -14z"/>
</g>
</svg>
